<svg width="16" height="16" viewBox="0 0 16 16" fill="none" xmlns="http://www.w3.org/2000/svg">
  <style>
    .bg { fill: #0a0a0a; }
    .fg { fill: #fafafa; }
    @media (prefers-color-scheme: light) {
      .bg { fill: #fafafa; }
      .fg { fill: #0a0a0a; }
    }
  </style>
  <rect class="bg" width="16" height="16" rx="4" />
  <path d="M13 4.42858C13 4.25525 12.8821 4.09897 12.7013 4.03263C12.5205 3.9663 12.3124 4.00297 12.174 4.12554L8.14172 7.69696C7.95276 7.86433 7.95276 8.1357 8.14172 8.30307L12.174 11.8745C12.3124 11.9971 12.5205 12.0337 12.7013 11.9673C12.8821 11.901 13 11.7448 13 11.5714V4.42858Z" fill="#85CC23"/>
  <path class="fg" d="M3 11.5714C3 11.7448 3.11787 11.901 3.29871 11.9674C3.47948 12.0337 3.68761 11.997 3.826 11.8745L7.85828 8.30304C8.04724 8.13567 8.04724 7.8643 7.85828 7.69693L3.826 4.12551C3.68761 4.00294 3.47948 3.96631 3.29871 4.03265C3.11787 4.09899 3 4.25522 3 4.42859L3 11.5714Z" />
</svg>
